<!-- Imagen de pagina Jubilaciones en svg -->

<svg version="1.1" xmlns="http://www.w3.org/2000/svg" xmlns:xlink="http://www.w3.org/1999/xlink" x="0px" y="0px"
	 viewBox="0 0 750 500" style="enable-background:new 0 0 750 500;" xml:space="preserve">
<style type="text/css">
	.st0{fill:#C0C9D6;}
	.st1{fill:#343B54;}
	.st2{fill:#59637C;}
	.st3{fill:#ED9970;}
	.st4{fill:#829CBF;}
	.st5{fill:#FFFFFF;}
	.st6{fill:#E07B53;}
	.st7{fill:#E8F0F9;}
	.st8{fill:#789B64;}
	.st9{fill:#DCA152;}
</style>
<g id="BACKGROUND">
	<rect class="st0" width="750" height="500"/>
</g>
<g id="OBJECTS">
	<g>
		<path class="st1" d="M691.83,442.5H555.89c-7,0-12.72-5.16-12.72-11.47V297.81c-5.6-5.05,7.12-16.52,12.72-11.47h151.79
			c7,0,12.72,5.16,12.72,11.47l-15.85,133.22C704.55,437.34,698.83,442.5,691.83,442.5z"/>
		<path class="st2" d="M692.43,431.09l-0.99-0.12l15.85-133.22c0-5.99-5.49-10.91-12.23-10.91v-1c7.29,0,13.22,5.37,13.22,11.97
			L692.43,431.09z"/>
		<g>
			<rect x="178.68" y="246.74" class="st3" width="73.8" height="68.27"/>
			<path class="st4" d="M178.68,290.01c0,0-58.97,8.65-90.12,37.5c-31.15,28.85-45.94,115.39-45.94,115.39h331.72
				c0,0,5.97-91.35-42.83-120.67c-48.8-29.33-78.67-32.21-78.67-32.21C235.45,310.56,205.03,307.05,178.68,290.01z"/>
			<path class="st1" d="M152.92,295.71c-19.76,5.46-46.58,15.34-64.35,31.79c-31.15,28.85-45.94,115.39-45.94,115.39h143.33
				C185.95,369.3,155.18,299.05,152.92,295.71z"/>
			<path class="st1" d="M331.51,322.22c-21.45-12.89-39.23-20.67-52.44-25.34c-3.12,7.86-23.13,48.51-20.93,145.76
				c0,0.08,1.13,0.17,1.13,0.25h115.07C374.34,442.89,380.31,351.55,331.51,322.22z"/>
			<path class="st5" d="M178.68,278.11l-12.07,14.21c0,0,10.68,29.72,31.06,27.38c17.91-2.16,21.09-15.6,21.09-15.6
				C197.63,300.16,184.15,291.58,178.68,278.11z"/>
			<path class="st5" d="M218.77,304.09c0,0,7.75,17.25,21.46,15.74c13.7-1.51,24.08-27.51,24.08-27.51l-11.82-9.33
				C244.67,295.47,233.25,302.21,218.77,304.09z"/>
			<g>
				<path class="st5" d="M295.74,190.58c-0.07,0-0.13-0.01-0.2-0.04l-19.8-8.69c-0.25-0.11-0.37-0.41-0.26-0.66
					c0.11-0.25,0.4-0.37,0.66-0.26l19.8,8.69c0.25,0.11,0.37,0.41,0.26,0.66C296.11,190.46,295.93,190.58,295.74,190.58z"/>
				<g>
					<path class="st1" d="M183.16,79.64c0,1.62-1.31,2.93-2.93,2.93c-1.62,0-2.93-1.31-2.93-2.93c0-1.62,1.31-2.93,2.93-2.93
						C181.85,76.7,183.16,78.02,183.16,79.64z"/>
					<path class="st1" d="M180.23,82.95c-1.83,0-3.31-1.48-3.31-3.31c0-1.83,1.48-3.31,3.31-3.31c1.82,0,3.31,1.48,3.31,3.31
						C183.54,81.46,182.05,82.95,180.23,82.95z M180.23,77.08c-1.41,0-2.56,1.15-2.56,2.56c0,1.41,1.15,2.56,2.56,2.56
						c1.41,0,2.56-1.15,2.56-2.56C182.79,78.22,181.64,77.08,180.23,77.08z"/>
				</g>
				<circle class="st5" cx="167.58" cy="107.57" r="29.52"/>
				<path class="st5" d="M281.68,158.81c2.5,92.03-27.06,114.32-65.52,114.32s-79.31-45.01-70.29-100.84
					c0-43.85,31.83-57.97,70.29-57.97S281.68,114.96,281.68,158.81z"/>
				<path class="st3" d="M161.38,203.08c0.11,15.15,1.21,29.82,7.43,43.94c14.38,32.64,62.59,48.49,90.27,22.7
					c15.33-14.28,18.43-37.23,19.51-57.07c1.06-19.48-0.54-39.24-3.91-58.45c-0.25-1.41-0.5-2.82-0.79-4.22l-65.05-27.34
					l-38.02,17.28l-9.58,42.42C161.23,182.34,161.38,203.07,161.38,203.08z"/>
				<path class="st1" d="M223.14,283.54c-0.53,0-1.06-0.01-1.59-0.03c-12.11-0.44-24.84-6.05-38.93-17.17l0.46-0.59
					c31.38,24.76,50.65,18.05,69.23,8.3l0.35,0.66C243.9,279.32,234.27,283.54,223.14,283.54z"/>
				<path class="st5" d="M161.35,181.39c0,0,20.82-10.02,26.76-31.03c0,0,39.18,26.2,78.85,16.35c39.66-9.86,31.73-77.4-11.54-59.14
					c0,0-90.09-24.92-99.28,23.8c0,0-32.17,16.63-10.68,49.9L161.35,181.39z"/>
				<path class="st1" d="M153.29,133.59l-0.43-0.61c1.47-1.03,2.55-1.64,2.94-1.85c3.33-17.26,17.02-27.25,40.69-29.71l0.08,0.75
					c-23.38,2.43-36.85,12.28-40.06,29.28l-0.03,0.18l-0.16,0.08C156.3,131.71,155.07,132.35,153.29,133.59z"/>
				<path class="st3" d="M162.2,182.29c-0.78-0.9-1.67-1.72-2.75-2.43c-3.25-2.15-7.78-2.21-11.29-0.48
					c-10.28,5.08-5.15,20.27,2.08,25.61c3.46,2.55,8.54,3.82,12.97,2.58c4.53-1.28,6.73-5.44,6.41-9.31
					c-0.32-3.9-2.07-7.72-4.15-11.16C164.48,185.44,163.49,183.77,162.2,182.29z"/>
				<path class="st1" d="M158.21,202.87c-6.04-1.01-9.33-8.55-8.93-13.3c0.26-3.17,1.98-4.99,4.72-4.99v0.75
					c-3.15,0-3.84,2.69-3.97,4.3c-0.41,4.96,3.2,11.65,8.31,12.5L158.21,202.87z"/>
				<path class="st1" d="M152.08,198.02l-0.47-0.59c3.67-2.95,8.72-1.37,8.93-1.3l-0.23,0.71
					C160.27,196.84,155.43,195.33,152.08,198.02z"/>
				<path class="st1" d="M161.47,208.3l-0.03-0.75c0.03,0,2.94-0.13,4.51-1.73l0.54,0.53C164.7,208.16,161.6,208.29,161.47,208.3z"
					/>
				<path class="st1" d="M187.89,150.67c-6.09-4.23-9.95-9.96-9.98-10.02l0.62-0.42c0.04,0.06,3.82,5.67,9.79,9.82L187.89,150.67z"
					/>
				
					<rect x="144.98" y="86.74" transform="matrix(0.3102 -0.9507 0.9507 0.3102 2.6817 208.9758)" class="st1" width="0.75" height="31.79"/>
				<g>
					<circle class="st1" cx="127.42" cy="96.94" r="2.93"/>
					<path class="st1" d="M127.42,100.25c-1.83,0-3.31-1.48-3.31-3.31c0-1.82,1.48-3.31,3.31-3.31c1.82,0,3.31,1.48,3.31,3.31
						C130.73,98.77,129.24,100.25,127.42,100.25z M127.42,94.38c-1.41,0-2.56,1.15-2.56,2.56c0,1.41,1.15,2.56,2.56,2.56
						c1.41,0,2.56-1.15,2.56-2.56C129.98,95.53,128.83,94.38,127.42,94.38z"/>
				</g>
				<path class="st1" d="M245.17,161.74c-20.86,0-39.4-9.22-39.68-9.36l0.34-0.67c0.43,0.22,42.79,21.27,71.24-0.74l0.46,0.59
					C267.62,159.22,256.08,161.74,245.17,161.74z"/>
				<path class="st1" d="M227.07,153.91c-20.79-3.06-31.1-12.25-31.2-12.34l0.5-0.56c0.1,0.09,10.26,9.13,30.81,12.15L227.07,153.91
					z"/>
				<g>
					<path class="st6" d="M238.49,254.15c-8.86,0-17.94-2.57-24.11-6.86l0.43-0.62c11.18,7.79,32.11,9.8,43.39,0.84l0.47,0.59
						C253.37,252.3,246.01,254.15,238.49,254.15z"/>
					<path class="st6" d="M237.97,233.46c-3.06,0-6.19-0.69-8.31-1.83l0.36-0.66c3.75,2.03,10.77,2.56,14.55,0.23l0.39,0.64
						C243.13,232.96,240.58,233.46,237.97,233.46z"/>
					<path class="st1" d="M237.95,228.5c-6.34,0-12.94-3.27-17.34-8.64l0.58-0.48c4.39,5.35,11.05,8.55,17.32,8.35
						c3.76-0.12,9.12-1.49,13.3-7.31l0.61,0.44c-4.37,6.07-9.96,7.5-13.89,7.62C238.34,228.5,238.14,228.5,237.95,228.5z"/>
					<path class="st1" d="M214.96,195.77c-0.5-3.28-3.75-4.95-6.65-4.91c-2.44,0.04-5.43,1.34-5.85,4.89l-0.75-0.09
						c0.48-4.03,3.84-5.51,6.58-5.56c3.26-0.05,6.84,1.84,7.4,5.54L214.96,195.77z"/>
					<path class="st1" d="M263.09,195.77c-0.5-3.28-3.75-4.95-6.65-4.91c-2.44,0.04-5.43,1.34-5.85,4.89l-0.75-0.09
						c0.48-4.03,3.84-5.51,6.58-5.56c3.26-0.05,6.84,1.84,7.4,5.54L263.09,195.77z"/>
					<path class="st5" d="M216.71,183.39c-0.3,0-0.61-0.07-0.9-0.21c-4.78-2.41-9.42-2.41-14.18,0c-0.99,0.5-2.19,0.1-2.69-0.88
						c-0.5-0.99-0.1-2.19,0.88-2.69c5.9-2.98,11.88-2.98,17.79,0c0.99,0.5,1.38,1.7,0.89,2.69
						C218.15,182.99,217.44,183.39,216.71,183.39z"/>
					<path class="st5" d="M264.83,183.39c-0.3,0-0.61-0.07-0.9-0.21c-4.78-2.41-9.42-2.41-14.18,0c-0.99,0.5-2.19,0.1-2.69-0.88
						c-0.5-0.99-0.1-2.19,0.88-2.69c5.9-2.98,11.88-2.98,17.79,0c0.99,0.5,1.38,1.7,0.89,2.69
						C266.27,182.99,265.57,183.39,264.83,183.39z"/>
					<path class="st1" d="M234.16,211.58l-0.18-0.73c2.19-0.53,7.92-2.49,8.19-5.12c0.35-3.33-5.16-15.86-5.22-15.99l0.69-0.3
						c0.23,0.52,5.65,12.84,5.28,16.37C242.54,209.5,234.51,211.49,234.16,211.58z"/>
					<path class="st1" d="M217.31,223l-0.3-0.69c3.5-1.54,4.66-3.68,3.54-6.55l0.7-0.27C222.53,218.77,221.21,221.29,217.31,223z"/>
					<path class="st1" d="M255.41,222.53c-3.17-0.58-4.87-2.28-5.04-5.08l0.75-0.05c0.15,2.44,1.6,3.87,4.43,4.39L255.41,222.53z"/>
					<path class="st5" d="M269,217.31c-15.02,0-27.23-12.22-27.23-27.23s12.22-27.23,27.23-27.23c15.02,0,27.23,12.22,27.23,27.23
						S284.02,217.31,269,217.31z M269,163.84c-14.47,0-26.23,11.77-26.23,26.23s11.77,26.23,26.23,26.23
						c14.47,0,26.23-11.77,26.23-26.23S283.47,163.84,269,163.84z"/>
					<path class="st5" d="M242.27,190.58c-0.11,0-0.21-0.03-0.31-0.1c-2.48-1.92-4.77-1.93-7.02-0.01
						c-0.21,0.18-0.53,0.15-0.71-0.06c-0.18-0.21-0.15-0.53,0.06-0.71c2.63-2.24,5.41-2.24,8.28-0.01c0.22,0.17,0.26,0.48,0.09,0.7
						C242.57,190.51,242.42,190.58,242.27,190.58z"/>
					<path class="st5" d="M181.15,190.58c-0.07,0-0.13-0.01-0.2-0.04l-19.8-8.69c-0.25-0.11-0.37-0.41-0.26-0.66
						c0.11-0.25,0.4-0.37,0.66-0.26l19.8,8.69c0.25,0.11,0.37,0.41,0.26,0.66C181.53,190.46,181.34,190.58,181.15,190.58z"/>
					<g>
						<ellipse class="st6" cx="191.12" cy="203.24" rx="5.98" ry="2.84"/>
						<path class="st6" d="M191.12,206.46c-3.56,0-6.35-1.41-6.35-3.22c0-1.8,2.79-3.22,6.35-3.22c3.56,0,6.35,1.41,6.35,3.22
							C197.47,205.04,194.68,206.46,191.12,206.46z M191.12,200.77c-3.35,0-5.6,1.28-5.6,2.47c0,1.19,2.25,2.47,5.6,2.47
							c3.35,0,5.6-1.28,5.6-2.47C196.72,202.05,194.47,200.77,191.12,200.77z"/>
					</g>
					<g>
						<path class="st6" d="M277.29,203.24c0,1.57-2.04,2.84-4.55,2.84s-4.55-1.27-4.55-2.84c0-1.57,2.04-2.84,4.55-2.84
							S277.29,201.67,277.29,203.24z"/>
						<path class="st6" d="M272.74,206.46c-2.76,0-4.92-1.41-4.92-3.22c0-1.8,2.16-3.22,4.92-3.22c2.76,0,4.92,1.41,4.92,3.22
							C277.67,205.04,275.5,206.46,272.74,206.46z M272.74,200.77c-2.26,0-4.17,1.13-4.17,2.47s1.91,2.47,4.17,2.47
							c2.26,0,4.17-1.13,4.17-2.47S275.01,200.77,272.74,200.77z"/>
					</g>
					<path class="st5" d="M207.89,217.31c-15.02,0-27.23-12.22-27.23-27.23s12.22-27.23,27.23-27.23s27.23,12.22,27.23,27.23
						S222.9,217.31,207.89,217.31z M207.89,163.84c-14.47,0-26.23,11.77-26.23,26.23s11.77,26.23,26.23,26.23
						c14.47,0,26.23-11.77,26.23-26.23S222.35,163.84,207.89,163.84z"/>
				</g>
			</g>
			<path class="st1" d="M228.07,442.92l-0.75-0.04c3.22-55.05,0.3-100.41-8.92-138.69l0.73-0.18
				C228.37,342.36,231.3,387.79,228.07,442.92z"/>
			<path class="st1" d="M218.98,315.91c0,0.94-0.76,1.7-1.7,1.7s-1.7-0.76-1.7-1.7s0.76-1.7,1.7-1.7S218.98,314.97,218.98,315.91z"
				/>
			<path class="st1" d="M223.96,352.79c0,0.94-0.76,1.7-1.7,1.7c-0.94,0-1.7-0.76-1.7-1.7s0.76-1.7,1.7-1.7
				C223.2,351.1,223.96,351.86,223.96,352.79z"/>
			<path class="st1" d="M226.49,392.3c0,0.94-0.76,1.7-1.7,1.7s-1.7-0.76-1.7-1.7s0.76-1.7,1.7-1.7S226.49,391.37,226.49,392.3z"/>
			<path class="st1" d="M225.56,429.93c0,0.94-0.76,1.7-1.7,1.7s-1.7-0.76-1.7-1.7s0.76-1.7,1.7-1.7S225.56,428.99,225.56,429.93z"
				/>
			<g>
				<g>
					<path class="st5" d="M161.8,295.95l0.06,0.13c0.24,0.53-0.02,1.14-0.56,1.37c-0.55,0.23-1.18-0.01-1.42-0.54
						c-0.01-0.03-0.03-0.07-0.04-0.1l-0.04-0.13c-0.18-0.55,0.14-1.13,0.7-1.3C161.02,295.22,161.58,295.47,161.8,295.95z"/>
					<path class="st5" d="M165.37,303.67l0.06,0.13c0.35,0.74,0.01,1.61-0.76,1.94c-0.77,0.34-1.67,0.01-2.01-0.73
						c-0.02-0.04-0.03-0.08-0.05-0.12l-0.05-0.13c-0.28-0.76,0.13-1.6,0.92-1.87C164.23,302.64,165.05,302.99,165.37,303.67z"/>
					<path class="st5" d="M169.1,311.3l0.06,0.12c0.46,0.91,0.07,2-0.87,2.44c-0.94,0.44-2.07,0.07-2.53-0.84
						c-0.02-0.05-0.05-0.1-0.06-0.14l-0.05-0.13c-0.38-0.94,0.11-1.99,1.08-2.35C167.64,310.06,168.67,310.47,169.1,311.3z"/>
					<path class="st5" d="M173,318.87l0.07,0.12c0.56,1.05,0.13,2.33-0.96,2.87c-1.09,0.54-2.42,0.12-2.98-0.92
						c-0.02-0.04-0.04-0.09-0.06-0.13l-0.06-0.13c-0.48-1.08,0.03-2.33,1.15-2.8C171.24,317.44,172.48,317.89,173,318.87z"/>
					<path class="st5" d="M177.11,326.29l0.07,0.12c0.67,1.17,0.24,2.64-0.97,3.28c-1.21,0.65-2.73,0.23-3.4-0.94
						c-0.03-0.05-0.05-0.1-0.08-0.14l-0.06-0.13c-0.59-1.2-0.06-2.64,1.19-3.21C175.05,324.73,176.47,325.19,177.11,326.29z"/>
					<path class="st5" d="M181.42,333.56l0.07,0.12c0.77,1.25,0.35,2.86-0.94,3.61c-1.29,0.74-2.97,0.34-3.74-0.91
						c-0.02-0.03-0.05-0.08-0.06-0.11l-0.07-0.12c-0.71-1.28-0.21-2.87,1.12-3.56C179.08,331.93,180.68,332.37,181.42,333.56z"/>
					<path class="st5" d="M186.02,340.63l0.08,0.11c0.9,1.3,0.53,3.06-0.82,3.93c-1.35,0.87-3.17,0.51-4.07-0.79
						c-0.02-0.03-0.05-0.08-0.07-0.11l-0.08-0.12c-0.83-1.34-0.38-3.08,1.01-3.88C183.42,338.99,185.16,339.39,186.02,340.63z"/>
					<path class="st5" d="M190.95,347.44l0.08,0.11c1.02,1.33,0.73,3.2-0.64,4.18c-1.38,0.98-3.32,0.71-4.34-0.62
						c-0.01-0.02-0.04-0.05-0.05-0.07l-0.08-0.12c-0.98-1.35-0.63-3.22,0.77-4.16C188.06,345.83,189.95,346.15,190.95,347.44z"/>
					<path class="st5" d="M196.28,353.87l0.09,0.1c1.17,1.29,1.04,3.26-0.31,4.39c-1.34,1.13-3.38,1-4.55-0.29
						c-0.02-0.02-0.04-0.05-0.06-0.07l-0.09-0.11c-1.13-1.33-0.94-3.29,0.44-4.38C193.14,352.43,195.12,352.6,196.28,353.87
						L196.28,353.87z"/>
					<path class="st5" d="M202.13,359.7l0.1,0.09c1.37,1.2,1.47,3.25,0.22,4.57c-1.25,1.32-3.37,1.41-4.74,0.21
						c-0.02-0.02-0.05-0.05-0.07-0.07l-0.11-0.1c-1.33-1.24-1.36-3.29-0.08-4.57c1.26-1.26,3.33-1.31,4.66-0.14L202.13,359.7z"/>
					<path class="st5" d="M208.55,364.65l0.11,0.07l0.01,0c1.57,1,2,3.04,0.96,4.55c-1.04,1.51-3.15,1.93-4.71,0.93l-0.03-0.02
						l-0.13-0.08c-1.56-1.01-1.97-3.05-0.92-4.55c1.04-1.49,3.14-1.89,4.69-0.9L208.55,364.65z"/>
					<path class="st5" d="M215.6,368.09l0.12,0.04l0.01,0c1.8,0.6,2.76,2.48,2.14,4.22c-0.62,1.74-2.58,2.66-4.37,2.07l-0.03-0.01
						l-0.15-0.05c-1.79-0.61-2.73-2.51-2.1-4.24c0.63-1.72,2.58-2.62,4.36-2.03L215.6,368.09z"/>
					<path class="st5" d="M223.03,369.28l0.12,0l0.02,0c1.92-0.04,3.52,1.43,3.57,3.28c0.04,1.86-1.48,3.4-3.4,3.44l-0.03,0l-0.17,0
						c-1.92,0.02-3.51-1.46-3.53-3.32c-0.03-1.84,1.49-3.36,3.4-3.41L223.03,369.28z"/>
					<path class="st5" d="M230.28,367.83l0.11-0.05l0.02-0.01c1.75-0.71,3.77,0.09,4.51,1.78c0.73,1.68-0.08,3.61-1.81,4.34
						l-0.15,0.06c-1.75,0.73-3.78-0.05-4.53-1.73c-0.75-1.69,0.05-3.64,1.8-4.37l0.03-0.01L230.28,367.83z"/>
					<path class="st5" d="M236.82,363.89l0.1-0.08l0.01-0.01c1.43-1.17,3.58-0.99,4.79,0.39c1.2,1.38,1.03,3.43-0.38,4.6l-0.12,0.1
						c-1.42,1.18-3.57,1.03-4.8-0.34c-1.23-1.37-1.07-3.44,0.36-4.63L236.82,363.89L236.82,363.89z"/>
					<path class="st5" d="M242.43,358.27l0.09-0.1l0.01-0.01c1.16-1.38,3.26-1.59,4.69-0.46c1.4,1.1,1.63,3.07,0.55,4.45l-0.09,0.12
						c-1.12,1.41-3.21,1.69-4.68,0.61c-1.47-1.08-1.75-3.1-0.63-4.51C242.39,358.33,242.42,358.29,242.43,358.27z"/>
					<path class="st5" d="M247.24,351.7l0.07-0.11l0-0.01c0.93-1.45,2.9-1.9,4.4-1c1.47,0.88,1.95,2.72,1.09,4.16l-0.07,0.13
						c-0.88,1.48-2.84,1.99-4.37,1.14c-1.53-0.85-2.06-2.74-1.18-4.21C247.2,351.76,247.23,351.72,247.24,351.7z"/>
					<path class="st5" d="M251.36,344.54l0.06-0.12c0.75-1.46,2.59-2.05,4.1-1.33c1.48,0.71,2.1,2.43,1.42,3.88l-0.06,0.13
						c-0.71,1.48-2.52,2.13-4.06,1.45c-1.53-0.68-2.21-2.44-1.5-3.92C251.33,344.6,251.35,344.56,251.36,344.54z"/>
					<path class="st5" d="M255,337.03l0.06-0.13c0.62-1.39,2.3-2.04,3.74-1.44c1.4,0.58,2.06,2.12,1.54,3.48l-0.05,0.13
						c-0.55,1.42-2.19,2.15-3.66,1.62c-1.48-0.53-2.23-2.11-1.68-3.54C254.96,337.13,254.98,337.08,255,337.03z"/>
					<path class="st5" d="M258.23,329.29l0.05-0.13c0.5-1.31,2.01-1.97,3.36-1.48c1.31,0.47,1.99,1.85,1.58,3.12l-0.04,0.13
						c-0.44,1.33-1.91,2.07-3.29,1.65c-1.38-0.42-2.15-1.84-1.71-3.17C258.2,329.38,258.22,329.33,258.23,329.29z"/>
					<path class="st5" d="M261.17,321.4l0.05-0.13c0.41-1.17,1.73-1.8,2.94-1.4c1.16,0.38,1.8,1.56,1.5,2.69l-0.04,0.14
						c-0.32,1.2-1.6,1.92-2.84,1.6s-1.99-1.54-1.66-2.74C261.14,321.51,261.16,321.45,261.17,321.4z"/>
					<path class="st5" d="M263.86,313.39l0.04-0.13c0.33-1.01,1.45-1.58,2.5-1.26c0.99,0.3,1.56,1.29,1.35,2.24l-0.03,0.14
						c-0.24,1.04-1.3,1.7-2.38,1.48c-1.08-0.23-1.77-1.26-1.53-2.3C263.82,313.51,263.84,313.45,263.86,313.39z"/>
					<path class="st5" d="M266.4,305.31l0.04-0.13c0.24-0.81,1.12-1.28,1.97-1.05c0.79,0.22,1.27,0.99,1.12,1.76l-0.03,0.14
						c-0.17,0.83-1,1.38-1.87,1.22c-0.86-0.16-1.43-0.97-1.26-1.8C266.37,305.4,266.38,305.36,266.4,305.31z"/>
					<path class="st5" d="M268.83,297.18l0.04-0.13c0.17-0.57,0.79-0.9,1.38-0.74c0.55,0.15,0.89,0.68,0.79,1.22l-0.02,0.14
						c-0.1,0.59-0.68,0.99-1.3,0.89c-0.61-0.1-1.03-0.66-0.92-1.25C268.81,297.25,268.82,297.21,268.83,297.18z"/>
				</g>
				<g>
					<path class="st5" d="M168.23,300.24l0.08,0.12c0.37,0.56,0.22,1.32-0.34,1.69c-0.56,0.37-1.32,0.22-1.69-0.34
						c-0.03-0.05-0.06-0.1-0.08-0.15l-0.06-0.13c-0.29-0.6-0.04-1.32,0.56-1.61C167.24,299.56,167.9,299.75,168.23,300.24z"/>
					<path class="st5" d="M173.15,307.28l0.08,0.11c0.58,0.78,0.41,1.88-0.37,2.45c-0.78,0.58-1.88,0.41-2.45-0.37
						c-0.04-0.05-0.08-0.11-0.11-0.17l-0.07-0.12c-0.48-0.84-0.19-1.9,0.65-2.38C171.65,306.36,172.63,306.58,173.15,307.28z"/>
					<path class="st5" d="M178.38,314.05l0.09,0.11c0.76,0.94,0.63,2.32-0.31,3.08c-0.94,0.76-2.32,0.63-3.08-0.31
						c-0.04-0.05-0.08-0.11-0.12-0.16l-0.08-0.12c-0.67-1-0.41-2.36,0.59-3.03C176.4,312.98,177.67,313.19,178.38,314.05z"/>
					<path class="st5" d="M183.96,320.47l0.09,0.1c0.95,1.04,0.89,2.65-0.15,3.6c-1.04,0.95-2.65,0.89-3.6-0.15
						c-0.04-0.04-0.08-0.09-0.11-0.13l-0.09-0.11c-0.88-1.09-0.71-2.7,0.38-3.58c1.05-0.85,2.56-0.72,3.46,0.25L183.96,320.47z"/>
					<path class="st5" d="M189.92,326.43l0.1,0.09c1.15,1.06,1.24,2.85,0.18,4c-1.06,1.15-2.85,1.24-4,0.18
						c-0.04-0.04-0.09-0.09-0.13-0.13l-0.1-0.11c-1.08-1.13-1.05-2.92,0.08-4c1.08-1.04,2.77-1.05,3.86-0.06L189.92,326.43z"/>
					<path class="st5" d="M196.31,331.79l0.11,0.08c1.34,1.01,1.61,2.91,0.61,4.25c-1.01,1.34-2.91,1.61-4.25,0.61
						c-0.03-0.02-0.07-0.05-0.1-0.07l-0.11-0.09c-1.3-1.06-1.5-2.97-0.44-4.27c1.03-1.27,2.88-1.48,4.17-0.51L196.31,331.79z"/>
					<path class="st5" d="M203.2,336.29l0.12,0.06c1.55,0.86,2.12,2.81,1.26,4.36c-0.86,1.55-2.81,2.12-4.36,1.26
						c-0.03-0.02-0.08-0.04-0.11-0.06l-0.13-0.08c-1.52-0.92-2-2.89-1.09-4.4c0.89-1.48,2.79-1.98,4.29-1.15L203.2,336.29z"/>
					<path class="st5" d="M210.54,339.65l0.12,0.04l0.01,0c1.71,0.6,2.61,2.48,2.01,4.19c-0.6,1.71-2.48,2.61-4.19,2.01
						c-0.01,0-0.03-0.01-0.04-0.01l-0.14-0.05c-1.7-0.63-2.58-2.51-1.95-4.22c0.62-1.69,2.48-2.57,4.18-1.97L210.54,339.65z"/>
					<path class="st5" d="M218.24,341.49l0.13,0.02l0.01,0c1.83,0.22,3.14,1.89,2.92,3.72c-0.22,1.83-1.89,3.14-3.72,2.92
						c-0.01,0-0.04,0-0.04-0.01l-0.15-0.02c-1.83-0.24-3.12-1.93-2.87-3.76c0.24-1.82,1.9-3.1,3.71-2.88L218.24,341.49z"/>
					<path class="st5" d="M226.06,341.57l0.13-0.01l0.02,0c1.82-0.21,3.47,1.1,3.68,2.93c0.21,1.81-1.08,3.44-2.88,3.67l-0.16,0.02
						c-1.82,0.23-3.49-1.06-3.72-2.88c-0.23-1.82,1.06-3.49,2.88-3.72c0.01,0,0.02,0,0.03,0L226.06,341.57z"/>
					<path class="st5" d="M233.52,339.66l0.12-0.05l0.02-0.01c1.66-0.7,3.58,0.08,4.27,1.74c0.69,1.65-0.07,3.54-1.7,4.26
						l-0.14,0.06c-1.65,0.72-3.58-0.03-4.3-1.68c-0.72-1.65,0.03-3.58,1.68-4.3c0.01,0,0.02-0.01,0.03-0.01L233.52,339.66z"/>
					<path class="st5" d="M240.25,335.76l0.1-0.08l0.02-0.01c1.37-1.05,3.33-0.79,4.38,0.58c1.02,1.33,0.8,3.22-0.48,4.29l-0.12,0.1
						c-1.32,1.11-3.29,0.93-4.4-0.39c-1.11-1.32-0.93-3.29,0.39-4.4C240.17,335.81,240.22,335.78,240.25,335.76z"/>
					<path class="st5" d="M246.02,330.22l0.09-0.1l0.01-0.01c1.05-1.24,2.9-1.39,4.14-0.34c1.2,1.02,1.38,2.8,0.42,4.04l-0.09,0.12
						c-1,1.28-2.84,1.52-4.12,0.52c-1.28-0.99-1.52-2.84-0.52-4.12C245.96,330.29,245.99,330.25,246.02,330.22z"/>
					<path class="st5" d="M250.89,323.6l0.07-0.12l0.01-0.01c0.77-1.24,2.4-1.61,3.64-0.83c1.18,0.74,1.57,2.27,0.93,3.48
						l-0.07,0.13c-0.69,1.29-2.29,1.78-3.58,1.09s-1.78-2.29-1.09-3.58C250.82,323.71,250.86,323.65,250.89,323.6z"/>
					<path class="st5" d="M254.96,316.27l0.06-0.12l0-0.01c0.56-1.13,1.93-1.59,3.06-1.03c1.06,0.52,1.53,1.77,1.12,2.85l-0.05,0.14
						c-0.45,1.18-1.76,1.78-2.95,1.34c-1.18-0.45-1.78-1.76-1.34-2.95C254.89,316.4,254.93,316.33,254.96,316.27z"/>
					<path class="st5" d="M258.41,308.5l0.05-0.13c0.38-0.94,1.45-1.39,2.38-1.01c0.87,0.35,1.32,1.29,1.08,2.17l-0.04,0.14
						c-0.26,0.98-1.27,1.56-2.25,1.3c-0.98-0.26-1.56-1.27-1.3-2.25C258.35,308.64,258.38,308.56,258.41,308.5z"/>
					<path class="st5" d="M261.43,300.46l0.05-0.13c0.23-0.66,0.95-1,1.61-0.77c0.59,0.21,0.93,0.82,0.82,1.43l-0.03,0.14
						c-0.13,0.69-0.8,1.14-1.49,1.01c-0.69-0.13-1.14-0.8-1.01-1.49C261.39,300.58,261.41,300.51,261.43,300.46z"/>
				</g>
			</g>
			<g>
				<path class="st1" d="M46.16,287.66c3.27-5.51,54.37-9.56,59.82-2.57c0,0-12.63,12.95-28.22,12.44
					C46.51,295.71,46.16,287.66,46.16,287.66z"/>
				<path class="st1" d="M42.33,307.34c3.27-5.51,63.42-12.15,68.87-5.16c2.25,4.03-20.06,17.85-36.98,14.96
					C42.97,315.31,42.33,307.34,42.33,307.34z"/>
				<g>
					<path class="st3" d="M83.99,305.92c-21.08,6.39-33.11-18.57-35.08-21.32c-10.18-14.24-15.79-55.86-15.79-55.86
						c-2.19-10.56,6.34-12.67,7.53-9.71c0.45,1.48-1.3-5.76-1.61-7.25c-2.29-13.32,8.41-12.81,10.68-7.89
						c-3.51-9.95,7.14-14.5,9.89-8.27c-1.72-7.39,8.2-11.15,12.65-0.85c2.95,5.5,19.61,54.32,19.61,54.32
						c4.32-1.68-2.54-20.55,7.63-25.93c1.18-0.3,2.02,0.47,2.34,1.36c7.01,29.51,2.22,47.92,1.12,54.47
						C101.29,288.88,96.67,302.08,83.99,305.92z"/>
					
						<rect x="44.91" y="218.84" transform="matrix(0.948 -0.3183 0.3183 0.948 -72.1864 26.5887)" class="st1" width="0.75" height="30.75"/>
					
						<rect x="54.93" y="203.26" transform="matrix(0.9593 -0.2825 0.2825 0.9593 -60.9389 24.7371)" class="st1" width="0.75" height="40.81"/>
					
						<rect x="66.27" y="194.66" transform="matrix(0.9524 -0.3048 0.3048 0.9524 -63.0427 30.6475)" class="st1" width="0.75" height="45.16"/>
					<path class="st1" d="M46.27,251.62l-0.41-0.63c7.97-5.25,18.78-9.87,33.04-14.12l0.21,0.72
						C64.93,241.82,54.18,246.41,46.27,251.62z"/>
					<path class="st1" d="M75.15,277.17c-1.1-19.4,16.37-28.33,16.54-28.42l0.33,0.67c-0.17,0.09-17.2,8.81-16.13,27.7L75.15,277.17
						z"/>
				</g>
				<path class="st4" d="M47.07,308.85c19.74,4.98,39.68,4.01,59.82-2.57l-0.91-21.19c-14.12,7.24-54.16,8.07-59.82,2.57
					L47.07,308.85z"/>
				<path class="st1" d="M132,442.89c0.19-4.42,0.06-9.11-0.45-14.11c0,0-18.21-131.86-20.52-126.45
					c-3.1,7.25-62.27,9.13-67.99,4.99c-5.95-4.31-1.34,102.2,0.24,135.57H132z"/>
				<path class="st2" d="M133.69,442.91c-2.86-81.86-20.2-132.05-20.37-132.55l0.94-0.33c0.18,0.5,17.56,50.82,20.43,132.85
					L133.69,442.91z"/>
			</g>
			<path class="st2" d="M178.19,442.94c-5.69-62.66-17.14-111.02-34.03-143.74l0.89-0.46c16.95,32.84,28.44,81.32,34.14,144.11
				L178.19,442.94z"/>
			<path class="st2" d="M265.83,442.9c-0.75-53.97,5.9-100.86,20.31-143.36l0.95,0.32c-14.38,42.38-21.01,89.17-20.26,143.02
				L265.83,442.9z"/>
			<path class="st2" d="M330.47,442.65l-0.98-0.22c5.82-25.79,3.74-56.49,1.98-72.49l0.99-0.11
				C334.23,385.89,336.32,416.72,330.47,442.65z"/>
		</g>
		<g>
			
				<rect x="484.21" y="213.66" transform="matrix(-1 -1.224647e-16 1.224647e-16 -1 1054.6631 507.1025)" class="st3" width="86.24" height="79.78"/>
			<path class="st4" d="M570.45,264.23c0,0,68.91,10.11,105.31,43.82c36.4,33.71,34.48,134.84,34.48,134.84H341.8
				c0,0-6.98-106.75,50.05-141.02c57.03-34.27,91.94-37.64,91.94-37.64C504.11,288.25,539.66,284.14,570.45,264.23z"/>
			<path class="st5" d="M521.39,289.09c0,1.56-1.27,2.83-2.83,2.83c-1.56,0-2.83-1.27-2.83-2.83s1.27-2.83,2.83-2.83
				C520.12,286.26,521.39,287.53,521.39,289.09z"/>
			<circle class="st5" cx="509.75" cy="361.75" r="2.83"/>
			<circle class="st5" cx="510.07" cy="434.41" r="2.83"/>
			<path class="st4" d="M570.45,246.23l19.92,22.03c-9.8,19.09-24.62,31.67-43.14,39.46l-20.67-27.23
				C546.73,275.37,561.5,264.11,570.45,246.23z"/>
			<path class="st4" d="M484.02,250.39l-14.79,16.85c3.58,19.12,12.6,32.89,26.92,41.46c4.97-10.44,10.8-20,17.77-28.39
				C499.1,273.93,488.62,264.34,484.02,250.39z"/>
			<path class="st1" d="M496.29,309.3l-0.38-0.32c-14.15-11.78-23.25-25.8-27.04-41.66l0.73-0.17
				c3.72,15.55,12.61,29.32,26.41,40.93c4.93-11.13,10.71-20.31,17.64-28.03l0.56,0.5c-6.97,7.77-12.76,17.03-17.71,28.29
				L496.29,309.3z"/>
			<path class="st1" d="M546.43,308.21l-0.17-0.29c-5.45-9.68-11.8-18.32-19.98-27.16l0.55-0.51c8.13,8.8,14.47,17.39,19.91,27.01
				c18.04-7.86,32.6-21.04,43.29-39.18l0.65,0.38c-10.83,18.38-25.62,31.71-43.95,39.62L546.43,308.21z"/>
			<path class="st1" d="M503.6,442.54c-3.68-57.85-0.15-115.41,9.96-162.07l0.73,0.16c-10.09,46.59-13.62,104.07-9.94,161.86
				L503.6,442.54z"/>
			<path class="st1" d="M516.47,442.54c-3.68-57.85-0.15-115.41,9.96-162.07l0.73,0.16c-10.09,46.59-13.62,104.07-9.94,161.86
				L516.47,442.54z"/>
			<path class="st1" d="M643.73,442.92c-0.05-0.62-4.63-61.99,0-88.42c4.65-26.5,20.75-44.25,20.91-44.43l0.55,0.51
				c-0.16,0.17-16.11,17.78-20.72,44.05c-4.62,26.34-0.04,87.62,0,88.23L643.73,442.92z"/>
			<path class="st1" d="M622.97,442.65c-6.75-51.63,6.79-138.47,14.68-159.65c-4.53-2.28-9.2-4.23-14-5.87
				c-9.14,24.54-22.14,112.46-15.8,165.52H622.97z"/>
			<g>
				<path class="st1" d="M603.21,392.34l-0.39-0.01l-62.55-1.83v-15.57h62.94V392.34z M541.02,389.77l61.44,1.8v-15.89h-61.44
					V389.77z"/>
				<path class="st5" d="M545.33,375.09c0,0,6.77-16.7,24.46-17.48s28.1,17.48,28.1,17.48s-4.16,12.71-7.16,12.71
					c-2.99,0-13.92-12.49-13.92-12.49L545.33,375.09z"/>
				<polygon class="st1" points="578.02,375.68 540.65,375.68 540.65,374.93 576.22,374.93 570.89,369.52 571.42,368.99 				"/>
			</g>
			<g>
				<path class="st5" d="M433.66,156.38c-0.19,0-0.38-0.11-0.46-0.3c-0.11-0.25,0-0.55,0.26-0.66l23.14-10.15
					c0.25-0.11,0.55,0,0.66,0.26c0.11,0.25,0,0.55-0.26,0.66l-23.14,10.15C433.8,156.37,433.73,156.38,433.66,156.38z"/>
				<path class="st5" d="M450.09,119.25c-2.92,107.55,31.62,125.26,76.57,125.26s92.69-44.26,82.15-109.51
					c0-51.25-37.2-67.74-82.15-67.74S450.09,68,450.09,119.25z"/>
				<path class="st3" d="M590.68,170.98c-0.13,17.71-1.41,26.51-8.68,43.01c-16.8,38.14-73.14,56.66-105.49,26.52
					c-17.91-16.69-21.54-35.17-22.8-58.36c-1.23-22.77,0.63-45.86,4.57-68.3c0.29-1.65,0.58-3.3,0.92-4.93l76.02-31.95l44.43,20.2
					l11.2,49.58C590.86,146.74,590.68,170.97,590.68,170.98z"/>
				<path class="st1" d="M515.93,258.3c-13.23,0-23.88-5.17-31.9-11.33l0.46-0.59c16.18,12.45,43.35,20.75,80.85-10.43l0.48,0.58
					C546.45,252.63,529.78,258.3,515.93,258.3z"/>
				<path class="st5" d="M590.71,145.63c0,0-24.33-11.71-31.27-36.26c0,0-45.79,30.62-92.14,19.1
					c-11.02-2.74-22.72-8.78-26.61-20.22c-3.32-9.76,0.26-20.26,6.27-28.17c10.1-13.31,25.7-20.31,41.65-23.81
					c20.12-4.42,40.96-5.63,61.45-3.36c15.56,1.73,32.48,6.47,41.42,20.47c1.04,1.63,1.95,3.35,2.71,5.12
					c0.53,1.23,1.84,8.27,2.61,8.67c0,0,37.6,19.43,12.48,58.32L590.71,145.63z"/>
				<path class="st3" d="M589.33,147.29c1.25-1.44,2.68-2.76,4.4-3.89c5.21-3.44,12.46-3.54,18.08-0.76
					c16.46,8.14,8.24,32.48-3.33,41.02c-5.54,4.08-13.68,6.13-20.77,4.13c-7.26-2.05-10.77-8.72-10.27-14.91
					c0.51-6.24,3.31-12.37,6.64-17.88C585.68,152.34,587.26,149.66,589.33,147.29z"/>
				<path class="st1" d="M595.68,180.04l-0.12-0.74c8.29-1.39,14.17-12.22,13.5-20.27c-0.37-4.51-2.78-7.09-6.59-7.09v-0.75
					c4.25,0,6.93,2.84,7.34,7.78c0.34,4.05-0.92,8.88-3.37,12.93C603.69,176.45,599.87,179.34,595.68,180.04z"/>
				<path class="st1" d="M605.68,172.32c-5.47-4.39-13.33-1.94-13.4-1.91l-0.23-0.71c0.34-0.11,8.32-2.6,14.1,2.04L605.68,172.32z"
					/>
				<path class="st1" d="M590.51,188.73c-0.21-0.01-5.08-0.22-7.88-3.06l0.54-0.53c2.58,2.63,7.32,2.84,7.37,2.84L590.51,188.73z"/>
				<path class="st1" d="M559.65,109.68l-0.43-0.62c6.98-4.85,11.41-11.42,11.46-11.49l0.62,0.42
					C571.26,98.06,566.76,104.74,559.65,109.68z"/>
				<path class="st1" d="M492.75,122.68c-3.31,0-6.66-0.2-10.02-0.66l0.1-0.74c27.79,3.78,55.65-10.13,55.93-10.27l0.34,0.67
					C538.86,111.8,517.08,122.68,492.75,122.68z"/>
				<path class="st1" d="M513.9,113.46l-0.11-0.74c24.03-3.54,35.92-14.11,36.03-14.22l0.5,0.56
					C550.21,99.16,538.18,109.88,513.9,113.46z"/>
				<path class="st1" d="M495.16,107.65c-19.03,0-30.35-7.28-30.47-7.35l0.41-0.63c0.12,0.07,11.64,7.5,31.03,7.22l0.01,0.75
					C495.82,107.65,495.49,107.65,495.16,107.65z"/>
				<g>
					<path class="st6" d="M501.95,240.91c-8.07,0-15.68-2.65-20.86-7.99l0.54-0.52c10.39,10.72,30.86,10.3,44.69-0.92l0.47,0.58
						C519.54,237.94,510.49,240.91,501.95,240.91z"/>
					<path class="st6" d="M501.17,206.42c-3.03,0-6-0.58-8.13-1.9l0.39-0.64c4.43,2.74,12.66,2.12,17.07-0.26l0.36,0.66
						C508.38,205.62,504.73,206.42,501.17,206.42z"/>
					<g>
						<path class="st1" d="M484.64,191.51c9.6,13.36,27.18,10.14,36.48-1.2L484.64,191.51z"/>
						<path class="st1" d="M501.19,200.62c-0.23,0-0.45,0-0.68-0.01c-4.57-0.15-11.09-1.81-16.18-8.88l-0.41-0.57l38.01-1.25
							l-0.52,0.64C516.28,196.81,508.58,200.62,501.19,200.62z M485.36,191.86c4.84,6.35,10.89,7.86,15.17,8
							c7.15,0.22,14.61-3.26,19.75-9.15L485.36,191.86z"/>
					</g>
					<path class="st5" d="M541.06,152c-1.35-0.29-2.61-0.53-3.82-0.67c-0.61-0.06-1.2-0.09-1.78-0.12
						c-0.58-0.01-1.15,0.03-1.71,0.04c-1.13,0.09-2.23,0.3-3.36,0.59c-1.12,0.35-2.24,0.62-3.96,0.15l-0.94-0.25
						c-2.79-0.75-4.45-3.62-3.7-6.42c0.13-0.49,0.34-0.96,0.59-1.37c1.17-1.92,3.09-2.84,5.11-3.3c2.01-0.53,4.14-0.75,6.26-0.67
						c0.53,0.04,1.06,0.06,1.58,0.12c0.52,0.08,1.04,0.15,1.56,0.25c0.51,0.11,1.02,0.21,1.52,0.35c0.49,0.15,0.99,0.3,1.47,0.47
						c1.93,0.68,3.7,1.63,5.24,2.79c2.01,1.52,2.42,4.38,0.9,6.39c-1.11,1.47-2.92,2.08-4.61,1.72L541.06,152z"/>
					<path class="st5" d="M477.79,152c-1.85,0.73-2.91,0.42-4.01,0.07c-1.1-0.3-2.19-0.5-3.3-0.61c-1.11-0.1-2.25-0.09-3.46-0.01
						c-1.21,0.1-2.48,0.31-3.86,0.55l-0.4,0.07c-2.5,0.44-4.87-1.23-5.31-3.73c-0.3-1.71,0.39-3.36,1.66-4.37
						c1.52-1.21,3.28-2.19,5.21-2.91c1.92-0.73,4.02-1.16,6.15-1.27c2.13-0.1,4.29,0.13,6.32,0.65c2.03,0.46,4.01,1.34,5.05,3.53
						c1.33,2.79,0.14,6.14-2.65,7.46c-0.11,0.05-0.22,0.1-0.34,0.15L477.79,152z"/>
					<path class="st1" d="M505.63,176.35c-0.4-0.1-9.74-2.42-10.19-6.69c-0.43-4.11,5.9-18.49,6.17-19.1l0.69,0.3
						c-0.06,0.15-6.51,14.81-6.1,18.72c0.39,3.75,9.53,6.02,9.62,6.04L505.63,176.35z"/>
					<path class="st5" d="M464.9,187.63c-17.5,0-31.74-14.24-31.74-31.74c0-17.5,14.24-31.74,31.74-31.74
						c17.5,0,31.74,14.24,31.74,31.74C496.64,173.39,482.41,187.63,464.9,187.63z M464.9,125.14c-16.95,0-30.74,13.79-30.74,30.74
						s13.79,30.74,30.74,30.74c16.95,0,30.74-13.79,30.74-30.74S481.85,125.14,464.9,125.14z"/>
					<path class="st5" d="M496.14,156.38c-0.15,0-0.3-0.07-0.4-0.19c-0.17-0.22-0.13-0.53,0.09-0.7c3.32-2.57,6.54-2.57,9.57,0.01
						c0.21,0.18,0.24,0.49,0.06,0.71c-0.18,0.21-0.49,0.24-0.71,0.06c-2.66-2.26-5.38-2.26-8.31,0.01
						C496.36,156.35,496.25,156.38,496.14,156.38z"/>
					<path class="st5" d="M567.57,156.38c-0.19,0-0.38-0.11-0.46-0.3c-0.11-0.25,0-0.55,0.26-0.66l23.14-10.15
						c0.25-0.11,0.55,0,0.66,0.26c0.11,0.25,0,0.55-0.26,0.66l-23.14,10.15C567.71,156.37,567.64,156.38,567.57,156.38z"/>
					<g>
						<ellipse class="st6" cx="551.94" cy="174.49" rx="6.98" ry="3.32"/>
						<path class="st6" d="M551.94,178.18c-4.13,0-7.36-1.62-7.36-3.7c0-2.07,3.23-3.7,7.36-3.7c4.13,0,7.36,1.62,7.36,3.7
							C559.3,176.56,556.07,178.18,551.94,178.18z M551.94,171.54c-3.58,0-6.61,1.35-6.61,2.95c0,1.6,3.03,2.95,6.61,2.95
							c3.58,0,6.61-1.35,6.61-2.95C558.55,172.89,555.53,171.54,551.94,171.54z"/>
					</g>
					<g>
						<path class="st6" d="M453.89,177.5c0.68,0.2,1.44,0.31,2.24,0.31c2.93,0,5.31-1.49,5.31-3.32s-2.38-3.32-5.31-3.32
							c-0.82,0-1.7,0.12-2.39,0.32L453.89,177.5z"/>
						<path class="st6" d="M456.13,178.18c-0.82,0-1.61-0.11-2.34-0.32l-0.26-0.08l-0.16-6.57l0.27-0.08
							c0.72-0.21,1.63-0.34,2.5-0.34c3.19,0,5.69,1.62,5.69,3.7C461.82,176.56,459.32,178.18,456.13,178.18z M454.25,177.21
							c0.59,0.15,1.22,0.22,1.87,0.22c2.72,0,4.94-1.32,4.94-2.95c0-1.62-2.22-2.95-4.94-2.95c-0.69,0-1.41,0.08-2.01,0.23
							L454.25,177.21z"/>
					</g>
					<path class="st5" d="M536.33,187.63c-17.5,0-31.74-14.24-31.74-31.74c0-17.5,14.24-31.74,31.74-31.74
						c17.5,0,31.74,14.24,31.74,31.74C568.07,173.39,553.83,187.63,536.33,187.63z M536.33,125.14c-16.95,0-30.74,13.79-30.74,30.74
						s13.79,30.74,30.74,30.74c16.95,0,30.74-13.79,30.74-30.74S553.28,125.14,536.33,125.14z"/>
					<g>
						<circle class="st1" cx="470.48" cy="165.45" r="3.48"/>
						<path class="st1" d="M470.48,169.31c-2.13,0-3.86-1.73-3.86-3.86c0-2.13,1.73-3.86,3.86-3.86s3.86,1.73,3.86,3.86
							C474.34,167.58,472.61,169.31,470.48,169.31z M470.48,162.34c-1.71,0-3.11,1.39-3.11,3.11c0,1.71,1.39,3.11,3.11,3.11
							c1.71,0,3.11-1.39,3.11-3.11C473.59,163.74,472.19,162.34,470.48,162.34z"/>
					</g>
					<g>
						<circle class="st1" cx="533.75" cy="165.45" r="3.48"/>
						<path class="st1" d="M533.75,169.31c-2.13,0-3.86-1.73-3.86-3.86c0-2.13,1.73-3.86,3.86-3.86c2.13,0,3.86,1.73,3.86,3.86
							C537.61,167.58,535.88,169.31,533.75,169.31z M533.75,162.34c-1.71,0-3.11,1.39-3.11,3.11c0,1.71,1.39,3.11,3.11,3.11
							c1.71,0,3.11-1.39,3.11-3.11C536.86,163.74,535.46,162.34,533.75,162.34z"/>
					</g>
					<path class="st5" d="M500.61,177.14c0,0-24.44-2.26-27.64,17.35h58.27C531.25,194.49,527.05,176.44,500.61,177.14z"/>
					<path class="st1" d="M479.89,194.5l-0.75-0.01c0.13-7.5,5.04-11.92,5.25-12.1l0.5,0.56
						C484.84,182.98,480.02,187.33,479.89,194.5z"/>
					<path class="st1" d="M515.21,194.51l-0.75-0.04c0.44-7.89-5.89-12.5-5.96-12.54l0.43-0.61
						C509.01,181.36,515.67,186.19,515.21,194.51z"/>
					<path class="st1" d="M524.87,194.54c-1-7.47-7.62-11.52-7.69-11.56l0.38-0.64c0.29,0.17,7,4.26,8.05,12.1L524.87,194.54z"/>
				</g>
			</g>
			<g>
				<path class="st3" d="M439.67,328.19c-19.46,15.71-42.75-5.43-46-7.49c-16.78-10.64-40.42-52.05-40.42-52.05
					c-6.8-10.18,1.27-16.03,3.78-13.42c1.11,1.37-3.82-5.5-4.79-6.95c-8.08-13.04,3.39-17.06,7.87-12.85
					c-7.93-8.97,1.33-18.3,6.88-12.92c-4.96-7.04,3.88-15.23,12.95-6.28c5.45,4.53,43.78,48.79,43.78,48.79
					c3.83-3.61-11.42-20.54-3.02-30.53c1.12-0.82,2.33-0.37,3.05,0.43c19.95,28.06,22.75,49.47,24.38,56.83
					C450.62,302.89,451.38,318.74,439.67,328.19z"/>
				
					<rect x="368.02" y="251.79" transform="matrix(0.7593 -0.6508 0.6508 0.7593 -86.529 304.5729)" class="st1" width="0.75" height="34.91"/>
				
					<rect x="374.07" y="230.7" transform="matrix(0.7831 -0.6219 0.6219 0.7831 -76.6595 287.9414)" class="st1" width="0.75" height="46.33"/>
				
					<rect x="383.26" y="216.65" transform="matrix(0.7684 -0.64 0.64 0.7684 -66.1994 301.6382)" class="st1" width="0.75" height="51.26"/>
				<path class="st1" d="M418.17,301.68c-9.41-19.91,5.14-36.73,5.29-36.89l0.56,0.5c-0.14,0.16-14.37,16.62-5.17,36.08
					L418.17,301.68z"/>
			</g>
		</g>
		<g>
			<path class="st5" d="M230.85,260.22c-6.39,0-11.37,5.21-10.67,11.17l18.32,155.56c0.6,5.1,5.2,8.96,10.67,8.96l0,0h241.34h0
				c5.47,0,10.07-3.86,10.67-8.96l18.32-155.56c0.7-5.96-4.27-11.17-10.67-11.17H230.85z"/>
			<path class="st1" d="M220.7,274.51c-0.33-2.84,0.55-5.6,2.5-7.79c2.1-2.37,5.19-3.73,8.48-3.73h276.33
				c3.28,0,6.37,1.36,8.48,3.73c1.95,2.19,2.83,4.96,2.5,7.79l-0.74-0.09c0.31-2.62-0.51-5.18-2.32-7.21
				c-1.96-2.21-4.85-3.47-7.92-3.47H231.68c-3.07,0-5.95,1.27-7.92,3.47c-1.8,2.03-2.62,4.59-2.31,7.21L220.7,274.51z"/>
			<path class="st5" d="M235.69,435.9c0.91,3.79,4.31,6.64,8.35,6.64h251.61c4.04,0,7.44-2.84,8.35-6.64H235.69z"/>
			<rect x="247.25" y="435.53" class="st1" width="246.14" height="0.75"/>
			<g>
				<path class="st1" d="M369.16,364.71l-0.58-0.48c1.85-2.24,4.06-5.74,4.06-9.69c0-5.6-4.54-10.35-5.66-11.44
					c-1.12,1.09-5.66,5.84-5.66,11.44c0,3.94,2.21,7.44,4.06,9.69l-0.58,0.48c-1.93-2.34-4.23-6-4.23-10.16
					c0-6.69,5.91-12.01,6.17-12.23l0.25-0.22l0.25,0.22c0.25,0.22,6.17,5.54,6.17,12.23C373.38,358.71,371.09,362.37,369.16,364.71z
					"/>
				<g>
					<path class="st1" d="M367.2,366.87c-0.13,0-0.21,0-0.24,0l0.02-0.75c0.09,0,8.21,0.16,13.02-4.34
						c4.19-3.93,4.59-10.23,4.62-11.8c-1.49,0.02-7.22,0.32-11.41,3.33l-0.44-0.61c5.04-3.62,11.94-3.48,12.24-3.47l0.35,0.01
						l0.01,0.35c0.01,0.33,0.18,8.01-4.86,12.74C375.89,366.64,368.64,366.87,367.2,366.87z"/>
					<path class="st1" d="M366.74,366.87c-1.43,0-8.69-0.22-13.31-4.55c-5.04-4.73-4.87-12.41-4.86-12.74l0.01-0.35l0.35-0.01
						c0.3-0.01,7.24-0.13,12.29,3.49l-0.44,0.61c-4.2-3.01-9.96-3.32-11.46-3.35c0.03,1.58,0.43,7.88,4.62,11.8
						c4.81,4.51,12.93,4.34,13.02,4.34l0.02,0.75C366.95,366.87,366.87,366.87,366.74,366.87z"/>
				</g>
			</g>
		</g>
		<g>
			<g>
				<path class="st5" d="M137.53,442.54c15.99-5.67,27.7-23.77,27.77-45.26H88.46c0.06,21.49,11.78,39.58,27.77,45.26H137.53z"/>
				<path class="st7" d="M99.19,397.28H88.46c0.06,21.49,11.78,39.58,27.77,45.26h10.74C110.97,436.87,99.26,418.77,99.19,397.28z"
					/>
				<rect x="88.56" y="400.14" class="st1" width="76.74" height="0.75"/>
				<rect x="90.29" y="411.26" class="st1" width="73.16" height="0.75"/>
				<path class="st7" d="M89.93,433.74c-0.26,0-0.52-0.01-0.79-0.03c-8.53-0.62-14.12-8.01-16.12-11.16
					c-0.22-0.34-0.42-0.69-0.61-1.05c-3.49-6.52-1.56-12.68,1.9-15.89c3.84-3.56,10.55-4.68,14.68-0.27
					c0.81,0.86,0.76,2.21-0.1,3.02c-0.86,0.81-2.21,0.76-3.02-0.1c-2.34-2.49-6.31-1.69-8.66,0.48c-3.13,2.91-2.78,7.48-1.04,10.73
					c0.14,0.26,0.29,0.52,0.45,0.77c1.66,2.6,6.22,8.71,12.82,9.19c0.77,0.06,2.14,0.02,2.7-0.8c0.27-0.41,0.42-1.02,0.37-1.6
					c-0.09-1.18,0.79-2.2,1.97-2.29c1.17-0.09,2.2,0.79,2.29,1.97c0.12,1.54-0.28,3.11-1.09,4.31
					C94.5,432.79,92.47,433.74,89.93,433.74z"/>
				<path class="st5" d="M118.51,385.45c-0.59-3.45,0.65-6.6,2.63-9.38c2.2-3.1,3.81-6.13,3.78-10.07
					c-0.02-3.46-1.29-6.91-3.52-9.56c0.27,0.32,1.45,0.53,1.86,0.72c0.73,0.33,1.43,0.71,2.12,1.12c2.81,1.68,5.79,3.56,7.75,6.24
					c1.03,1.41,1.75,3.09,1.78,4.84c0.11,6.33-6.88,9.6-9.97,14.23c-0.65,0.98-1.17,2.04-1.54,3.15c-0.28,0.85-0.47,1.74-0.41,2.63
					c0.21,2.17,1.5,3.73,1.5,3.73S119.3,391.14,118.51,385.45z"/>
			</g>
			<g>
				<path class="st5" d="M662.19,442.54c15.99-5.67,27.7-23.77,27.77-45.26h-76.84c0.06,21.49,11.78,39.58,27.77,45.26H662.19z"/>
				<path class="st7" d="M623.85,397.28h-10.74c0.06,21.49,11.78,39.58,27.77,45.26h10.74
					C635.63,436.87,623.92,418.77,623.85,397.28z"/>
				<rect x="613.22" y="400.14" class="st1" width="76.74" height="0.75"/>
				<rect x="614.95" y="411.26" class="st1" width="73.16" height="0.75"/>
				<path class="st7" d="M614.59,433.74c-0.26,0-0.52-0.01-0.79-0.03c-8.53-0.62-14.12-8.01-16.12-11.16
					c-0.22-0.34-0.42-0.69-0.61-1.05c-3.49-6.52-1.56-12.68,1.9-15.89c3.84-3.56,10.55-4.68,14.68-0.27
					c0.81,0.86,0.76,2.21-0.1,3.02c-0.86,0.81-2.21,0.76-3.02-0.1c-2.34-2.49-6.31-1.69-8.66,0.48c-3.13,2.91-2.78,7.48-1.04,10.73
					c0.14,0.26,0.29,0.52,0.45,0.77c1.66,2.6,6.22,8.71,12.82,9.19c0.77,0.06,2.14,0.02,2.7-0.8c0.27-0.41,0.42-1.02,0.37-1.6
					c-0.09-1.18,0.79-2.2,1.97-2.29c1.17-0.09,2.2,0.79,2.29,1.97c0.12,1.54-0.28,3.11-1.09,4.31
					C619.16,432.79,617.13,433.74,614.59,433.74z"/>
				<path class="st5" d="M646.01,388.12c-0.39-2.25,0.43-4.29,1.71-6.1c1.43-2.02,2.48-3.99,2.46-6.55
					c-0.01-2.25-0.84-4.49-2.29-6.22c0.18,0.21,0.94,0.35,1.21,0.47c0.47,0.22,0.93,0.46,1.38,0.73c1.83,1.09,3.76,2.31,5.04,4.06
					c0.67,0.92,1.14,2.01,1.16,3.15c0.07,4.12-4.48,6.24-6.49,9.26c-0.42,0.63-0.76,1.33-1,2.05c-0.18,0.55-0.31,1.13-0.26,1.71
					c0.14,1.41,0.97,2.42,0.97,2.42S646.52,391.82,646.01,388.12z"/>
			</g>
			<g>
				<g>
					<path class="st8" d="M280.87,384.24c0,0,7.86-94.01,25.84-93.61c17.97,0.4,13.18,98.29,13.18,98.29L280.87,384.24z"/>
					<path class="st1" d="M301.03,400.84c-6.58-49.68,5.48-105.21,5.6-105.76l0.73,0.16c-0.12,0.55-12.15,55.95-5.59,105.5
						L301.03,400.84z"/>
					<path class="st8" d="M296.95,377.43c0,0,25.5-66.42,37.43-62.49c11.93,3.93-12.36,73.77-12.36,73.77L296.95,377.43z"/>
					<path class="st8" d="M271.8,391.24c0,0-18.16-69.14-2.05-75.19s38.04,64.75,38.04,64.75L271.8,391.24z"/>
					<path class="st1" d="M298.46,394.68c-13.23-23.09-21.83-46.9-25.58-70.78l0.74-0.12c3.73,23.79,12.31,47.52,25.49,70.53
						L298.46,394.68z"/>
					<path class="st1" d="M305.89,394.69l-0.64-0.39c12.44-20.41,20.53-41.46,24.06-62.56l0.74,0.12
						C326.51,353.06,318.38,374.2,305.89,394.69z"/>
					<path class="st1" d="M307.43,380.91c-4.64-15.47-11.29-31.77-19.78-48.47l0.67-0.34c8.51,16.74,15.18,33.09,19.83,48.6
						L307.43,380.91z"/>
					<path class="st1" d="M302.61,364.54l-0.71-0.25c4.18-11.92,9.96-23.76,17.21-35.18l0.63,0.4
						C312.53,340.89,306.76,352.67,302.61,364.54z"/>
				</g>
				<polygon class="st9" points="260.88,379.21 334.89,379.21 332.89,392.09 262.84,392.09 				"/>
				<path class="st9" d="M272.47,384.66h50.8c3.99,0,7.11,3.45,6.71,7.42l-4.47,44.39c-0.35,3.44-3.25,6.07-6.71,6.07h-42.12
					c-3.48,0-6.38-2.64-6.71-6.11l-4.21-44.39C265.38,388.08,268.49,384.66,272.47,384.66z"/>
				<rect x="265.75" y="391.69" class="st1" width="64.22" height="0.75"/>
				<rect x="266.95" y="404.32" class="st1" width="61.75" height="0.75"/>
				<rect x="267.91" y="414.69" class="st1" width="59.75" height="0.75"/>
				<polygon class="st1" points="282.36,412.77 274.58,405.24 267.95,412.5 267.39,411.99 274.54,404.16 282.35,411.72 
					289.91,404.18 298,411.73 305.76,404.18 313.71,411.72 321.36,404.15 328.22,412 327.65,412.49 321.32,405.25 313.73,412.77 
					305.76,405.22 298.01,412.76 289.92,405.22 				"/>
			</g>
			<g>
				<path class="st9" d="M557.32,442.54h-100.2c-6.91,0-12.56-3.75-12.56-8.33v-9.28c0-4.58,5.65-8.33,12.56-8.33
					c33.4-3.21,66.8-3.21,100.2,0c6.91,0,12.56,3.75,12.56,8.33v9.28C569.88,438.79,564.23,442.54,557.32,442.54z"/>
				<rect x="444.56" y="429.23" class="st1" width="125.32" height="0.75"/>
				<g>
					<g>
						<path class="st9" d="M472.6,430.47h-10.74c-0.47,0-0.86-0.39-0.86-0.86l0,0c0-0.47,0.39-0.86,0.86-0.86h10.74
							c0.47,0,0.86,0.39,0.86,0.86l0,0C473.46,430.08,473.08,430.47,472.6,430.47z"/>
						<path class="st1" d="M472.6,430.84h-10.74c-0.68,0-1.24-0.55-1.24-1.24c0-0.68,0.55-1.24,1.24-1.24h10.74
							c0.68,0,1.24,0.55,1.24,1.24C473.84,430.29,473.28,430.84,472.6,430.84z M461.86,429.12c-0.27,0-0.49,0.22-0.49,0.49
							c0,0.27,0.22,0.49,0.49,0.49h10.74c0.27,0,0.49-0.22,0.49-0.49c0-0.27-0.22-0.49-0.49-0.49H461.86z"/>
					</g>
					<g>
						<path class="st9" d="M552.58,430.47h-10.74c-0.47,0-0.86-0.39-0.86-0.86l0,0c0-0.47,0.39-0.86,0.86-0.86h10.74
							c0.47,0,0.86,0.39,0.86,0.86l0,0C553.44,430.08,553.06,430.47,552.58,430.47z"/>
						<path class="st1" d="M552.58,430.84h-10.74c-0.68,0-1.24-0.55-1.24-1.24c0-0.68,0.55-1.24,1.24-1.24h10.74
							c0.68,0,1.24,0.55,1.24,1.24C553.82,430.29,553.26,430.84,552.58,430.84z M541.84,429.12c-0.27,0-0.49,0.22-0.49,0.49
							c0,0.27,0.22,0.49,0.49,0.49h10.74c0.27,0,0.49-0.22,0.49-0.49c0-0.27-0.22-0.49-0.49-0.49H541.84z"/>
					</g>
				</g>
			</g>
		</g>
		<rect x="20.69" y="442.13" class="st1" width="708.62" height="0.75"/>
	</g>
</g>
</svg>